<svg width="31" height="34" viewBox="0 0 31 34" fill="none" xmlns="http://www.w3.org/2000/svg">
<g clip-path="url(#clip0_294_21)">
<path d="M14.5771 33.0779L10.2872 30.9858L5.52881 33.0779V23.5017H14.5771V33.0779Z" fill="#E4A254"/>
<path d="M26.3046 33.0779L22.0082 30.9858L17.2563 33.0779V23.5017H26.3046V33.0779Z" fill="#E4A254"/>
<path d="M25.262 24.6631C23.7704 24.0955 22.1997 25.2967 22.3713 26.8872C22.6023 29.0585 19.8172 30.1409 18.5236 28.3788C17.5799 27.0918 15.6065 27.2568 14.8872 28.689C13.9104 30.6425 10.9801 30.0419 10.8415 27.864C10.7425 26.2669 8.99358 25.3429 7.61424 26.1547C5.73331 27.2634 3.59499 25.1779 4.65755 23.2706C5.43632 21.878 4.46616 20.1489 2.86902 20.0895C0.684503 20.0103 0.0113284 17.0932 1.93845 16.0636C3.3442 15.3113 3.463 13.3379 2.14965 12.4206C0.361115 11.1732 1.36428 8.36174 3.54219 8.53333C5.13273 8.65873 6.30089 7.06159 5.68711 5.58325C4.85554 3.56372 7.22485 1.74219 8.96058 3.06214C10.2343 4.03231 12.0757 3.31293 12.3595 1.74219C12.7488 -0.402724 15.7319 -0.660114 16.4777 1.39241C17.0255 2.89055 18.9592 3.28653 20.0548 2.11838C21.5463 0.52124 24.1862 1.92039 23.7044 4.0521C23.3546 5.60964 24.767 6.98899 26.3179 6.59961C28.4364 6.06503 29.9016 8.66533 28.344 10.1965C27.2089 11.3184 27.6511 13.2456 29.169 13.7537C31.2413 14.4467 31.0631 17.4298 28.9314 17.8786C27.3673 18.2086 26.7007 20.0697 27.7039 21.3104C29.07 23.0132 27.3145 25.4287 25.2752 24.6499L25.262 24.6631Z" fill="#F4C965"/>
<path d="M15.7123 25.574C21.5843 25.574 26.3445 20.8138 26.3445 14.9418C26.3445 9.06982 21.5843 4.30963 15.7123 4.30963C9.84027 4.30963 5.08008 9.06982 5.08008 14.9418C5.08008 20.8138 9.84027 25.574 15.7123 25.574Z" fill="white" stroke="#E4A254" stroke-width="0.659975" stroke-miterlimit="10"/>
<path d="M16.5568 7.5765L18.2463 10.9952C18.3849 11.2724 18.6489 11.4637 18.9591 11.5099L22.7341 12.0577C23.5063 12.1699 23.8165 13.1203 23.2555 13.6681L20.5232 16.3278C20.2988 16.5456 20.1998 16.8557 20.2526 17.1593L20.8994 20.9146C21.0314 21.6868 20.2262 22.2741 19.5332 21.9111L16.1608 20.1358C15.8836 19.9906 15.5602 19.9906 15.283 20.1358L11.9105 21.9111C11.2176 22.2741 10.4124 21.6868 10.5444 20.9146L11.1912 17.1593C11.244 16.8557 11.145 16.539 10.9206 16.3278L8.18827 13.6681C7.6273 13.1203 7.93748 12.1699 8.70965 12.0577L12.4847 11.5099C12.7949 11.4637 13.0589 11.2724 13.1975 10.9952L14.887 7.5765C15.2302 6.87693 16.2334 6.87693 16.5766 7.5765H16.5568Z" fill="#E4A254"/>
</g>
<defs>
<clipPath id="clip0_294_21">
<rect width="29.8243" height="33.0779" fill="white" transform="translate(0.803223)"/>
</clipPath>
</defs>
</svg>
