<svg width="168" height="96" viewBox="0 0 168 96" fill="none" xmlns="http://www.w3.org/2000/svg">
<path opacity="0.96" d="M123.265 80.1898C96.7659 102.05 78.2746 99.8793 50.1204 80.2296C27.4765 64.4256 22.2406 41.3576 43.5521 23.7789C73.8278 -1.19484 85.5613 3.00685 122.08 17.1844C151.909 28.7611 144.973 62.2834 123.265 80.1898Z" fill="#DAF0FB"/>
<path d="M87.8422 1.5C101.386 1.5 101.386 15.2044 87.8422 15.2044H61.6436C43.1105 15.2044 43.1105 26.9514 61.6436 26.9514H77.0688C82.92 26.9514 87.662 30.9587 87.662 35.9033V45.4745" stroke="#2C5281" stroke-width="3" stroke-miterlimit="10"/>
<path d="M167.151 73.4421H0L9.03669 44.526C9.94035 41.6312 12.6315 39.6604 15.6729 39.6604H151.482C154.523 39.6604 157.214 41.6312 158.118 44.526L167.155 73.4421H167.151Z" fill="#5BAEE8"/>
<path d="M156.144 88.1143H11.0989C5.01208 88.1143 0.0757446 83.1972 0.0757446 77.134V73.458H167.171V77.134C167.171 83.1972 162.234 88.1143 156.148 88.1143H156.144Z" fill="#2C5281"/>
<path d="M29.0608 37.6335H13.3322V48.4077H29.0608V37.6335Z" fill="#A0E8F2"/>
<path d="M46.7083 37.6335H30.9797V48.4077H46.7083V37.6335Z" fill="#FAB8B8"/>
<path d="M64.5349 37.6335H48.8063V48.4077H64.5349V37.6335Z" fill="#A0E8F2"/>
<path opacity="0.4" d="M29.0608 44.0334H13.3322V48.4113H29.0608V44.0334Z" fill="#5BAEE8"/>
<path opacity="0.4" d="M46.7083 44.0334H30.9797V48.4113H46.7083V44.0334Z" fill="#FF8880"/>
<path opacity="0.4" d="M64.5349 44.0334H48.8063V48.4113H64.5349V44.0334Z" fill="#5BAEE8"/>
<path d="M82.4689 37.6335H66.7403V48.4077H82.4689V37.6335Z" fill="#A0E8F2"/>
<path d="M100.116 37.6335H84.3875V48.4077H100.116V37.6335Z" fill="#A0E8F2"/>
<path d="M117.943 37.6335H102.214V48.4077H117.943V37.6335Z" fill="#A0E8F2"/>
<path opacity="0.4" d="M82.4689 44.0334H66.7403V48.4113H82.4689V44.0334Z" fill="#5BAEE8"/>
<path opacity="0.4" d="M100.116 44.0334H84.3875V48.4113H100.116V44.0334Z" fill="#5BAEE8"/>
<path opacity="0.4" d="M117.943 44.0334H102.214V48.4113H117.943V44.0334Z" fill="#5BAEE8"/>
<path d="M136.092 37.6335H120.363V48.4077H136.092V37.6335Z" fill="#A0E8F2"/>
<path d="M153.915 37.6335H138.186V48.4077H153.915V37.6335Z" fill="#A0E8F2"/>
<path opacity="0.4" d="M136.092 44.0334H120.363V48.4113H136.092V44.0334Z" fill="#5BAEE8"/>
<path opacity="0.4" d="M153.915 44.0334H138.186V48.4113H153.915V44.0334Z" fill="#5BAEE8"/>
<path d="M26.525 47.1548H10.0679V57.9289H26.525V47.1548Z" fill="#A0E8F2"/>
<path d="M44.9924 47.1548H28.5353V57.9289H44.9924V47.1548Z" fill="#A0E8F2"/>
<path d="M63.6469 47.1548H47.1898V57.9289H63.6469V47.1548Z" fill="#FAB8B8"/>
<path opacity="0.4" d="M26.525 53.5547H10.0679V57.9325H26.525V53.5547Z" fill="#5BAEE8"/>
<path opacity="0.4" d="M44.9924 53.5547H28.5353V57.9325H44.9924V53.5547Z" fill="#5BAEE8"/>
<path opacity="0.4" d="M63.6469 53.5547H47.1898V57.9325H63.6469V53.5547Z" fill="#FF8880"/>
<path d="M82.4131 47.1548H65.9559V57.9289H82.4131V47.1548Z" fill="#A0E8F2"/>
<path d="M100.88 47.1548H84.4233V57.9289H100.88V47.1548Z" fill="#A0E8F2"/>
<path d="M119.535 47.1548H103.078V57.9289H119.535V47.1548Z" fill="#FAB8B8"/>
<path opacity="0.4" d="M82.4131 53.5547H65.9559V57.9325H82.4131V53.5547Z" fill="#5BAEE8"/>
<path opacity="0.4" d="M100.88 53.5547H84.4233V57.9325H100.88V53.5547Z" fill="#5BAEE8"/>
<path opacity="0.4" d="M119.535 53.5547H103.078V57.9325H119.535V53.5547Z" fill="#FF8880"/>
<path d="M138.524 47.1548H122.067V57.9289H138.524V47.1548Z" fill="#A0E8F2"/>
<path d="M157.179 47.1548H140.721V57.9289H157.179V47.1548Z" fill="#A0E8F2"/>
<path opacity="0.4" d="M138.524 53.5547H122.067V57.9325H138.524V53.5547Z" fill="#5BAEE8"/>
<path opacity="0.4" d="M157.179 53.5547H140.721V57.9325H157.179V53.5547Z" fill="#5BAEE8"/>
<path d="M21.6402 56.6797H3.77386V67.4538H21.6402V56.6797Z" fill="#A0E8F2"/>
<path d="M41.6883 56.6797H23.8219V67.4538H41.6883V56.6797Z" fill="#A0E8F2"/>
<path d="M61.9391 56.6797H44.0727V67.4538H61.9391V56.6797Z" fill="#A0E8F2"/>
<path opacity="0.4" d="M21.6402 63.0759H3.77386V67.4538H21.6402V63.0759Z" fill="#5BAEE8"/>
<path opacity="0.4" d="M41.6883 63.0759H23.8219V67.4538H41.6883V63.0759Z" fill="#5BAEE8"/>
<path opacity="0.4" d="M61.9391 63.0759H44.0727V67.4538H61.9391V63.0759Z" fill="#5BAEE8"/>
<path d="M82.3097 56.6797H64.4434V67.4538H82.3097V56.6797Z" fill="#A0E8F2"/>
<path d="M102.361 56.6797H84.4951V67.4538H102.361V56.6797Z" fill="#FAB8B8"/>
<path d="M122.608 56.6797H104.742V67.4538H122.608V56.6797Z" fill="#A0E8F2"/>
<path opacity="0.4" d="M82.3097 63.0759H64.4434V67.4538H82.3097V63.0759Z" fill="#5BAEE8"/>
<path opacity="0.4" d="M102.361 63.0759H84.4951V67.4538H102.361V63.0759Z" fill="#FF8880"/>
<path opacity="0.4" d="M122.608 63.0759H104.742V67.4538H122.608V63.0759Z" fill="#5BAEE8"/>
<path d="M143.226 56.6797H125.359V67.4538H143.226V56.6797Z" fill="#A0E8F2"/>
<path d="M163.472 56.6797H145.606V67.4538H163.472V56.6797Z" fill="#A0E8F2"/>
<path opacity="0.4" d="M143.226 63.0759H125.359V67.4538H143.226V63.0759Z" fill="#5BAEE8"/>
<path opacity="0.4" d="M163.472 63.0759H145.606V67.4538H163.472V63.0759Z" fill="#5BAEE8"/>
</svg>
